<mxfile host="65bd71144e" pages="5">
    <diagram id="zRDR28uWy2j19FJvfki4" name="MainBlocks">
        <mxGraphModel dx="631" dy="1760" grid="1" gridSize="10" guides="1" tooltips="1" connect="1" arrows="1" fold="1" page="1" pageScale="1" pageWidth="827" pageHeight="1169" math="0" shadow="0">
            <root>
                <mxCell id="0"/>
                <mxCell id="1" parent="0"/>
                <mxCell id="t-ImIZvQn2SqK_caZat9-21" value="Экосистема ROS" style="rounded=0;whiteSpace=wrap;html=1;fontSize=14;verticalAlign=top;dashed=1;" parent="1" vertex="1">
                    <mxGeometry x="180" y="-250" width="720" height="330" as="geometry"/>
                </mxCell>
                <mxCell id="t-ImIZvQn2SqK_caZat9-1" value="Привод тормоза" style="rounded=1;whiteSpace=wrap;html=1;fontSize=14;fillColor=#f8cecc;strokeColor=#b85450;" parent="1" vertex="1">
                    <mxGeometry x="300" y="280" width="120" height="40" as="geometry"/>
                </mxCell>
                <mxCell id="t-ImIZvQn2SqK_caZat9-3" value="" style="endArrow=classic;startArrow=classic;html=1;fontSize=14;" parent="1" source="t-ImIZvQn2SqK_caZat9-1" target="t-ImIZvQn2SqK_caZat9-4" edge="1">
                    <mxGeometry width="50" height="50" relative="1" as="geometry">
                        <mxPoint x="390" y="440" as="sourcePoint"/>
                        <mxPoint x="360" y="340" as="targetPoint"/>
                        <Array as="points">
                            <mxPoint x="460" y="300"/>
                        </Array>
                    </mxGeometry>
                </mxCell>
                <mxCell id="t-ImIZvQn2SqK_caZat9-4" value="Основной МК" style="rounded=1;whiteSpace=wrap;html=1;fontSize=14;" parent="1" vertex="1">
                    <mxGeometry x="440" y="200" width="120" height="40" as="geometry"/>
                </mxCell>
                <mxCell id="t-ImIZvQn2SqK_caZat9-7" value="МК привода поворота" style="rounded=1;whiteSpace=wrap;html=1;fontSize=14;" parent="1" vertex="1">
                    <mxGeometry x="240" y="200" width="120" height="40" as="geometry"/>
                </mxCell>
                <mxCell id="t-ImIZvQn2SqK_caZat9-8" value="" style="endArrow=classic;startArrow=classic;html=1;fontSize=14;" parent="1" source="t-ImIZvQn2SqK_caZat9-4" target="t-ImIZvQn2SqK_caZat9-7" edge="1">
                    <mxGeometry width="50" height="50" relative="1" as="geometry">
                        <mxPoint x="443.33333333333326" y="330" as="sourcePoint"/>
                        <mxPoint x="496.66666666666674" y="250" as="targetPoint"/>
                    </mxGeometry>
                </mxCell>
                <mxCell id="t-ImIZvQn2SqK_caZat9-10" value="Головной ПК" style="rounded=1;whiteSpace=wrap;html=1;fontSize=14;fillColor=#dae8fc;strokeColor=#6c8ebf;" parent="1" vertex="1">
                    <mxGeometry x="440" width="120" height="40" as="geometry"/>
                </mxCell>
                <mxCell id="t-ImIZvQn2SqK_caZat9-11" value="Ethernet / ROS" style="endArrow=classic;startArrow=classic;html=1;fontSize=14;" parent="1" source="t-ImIZvQn2SqK_caZat9-10" target="t-ImIZvQn2SqK_caZat9-4" edge="1">
                    <mxGeometry width="50" height="50" relative="1" as="geometry">
                        <mxPoint x="527.1428571428571" y="210" as="sourcePoint"/>
                        <mxPoint x="612.8571428571429" y="110" as="targetPoint"/>
                    </mxGeometry>
                </mxCell>
                <mxCell id="t-ImIZvQn2SqK_caZat9-13" value="Система камер&lt;br&gt;&lt;br&gt;&lt;div style=&quot;text-align: left&quot;&gt;&lt;span&gt;- Камера ближнего вида&lt;/span&gt;&lt;/div&gt;&lt;div style=&quot;text-align: left&quot;&gt;- Камера дальнего вида&lt;/div&gt;&lt;div style=&quot;text-align: left&quot;&gt;- Камера заднего вида&lt;/div&gt;" style="rounded=1;whiteSpace=wrap;html=1;fontSize=14;fillColor=#f8cecc;strokeColor=#b85450;verticalAlign=top;" parent="1" vertex="1">
                    <mxGeometry x="660" y="-140" width="220" height="100" as="geometry"/>
                </mxCell>
                <mxCell id="t-ImIZvQn2SqK_caZat9-14" value="USB" style="endArrow=classic;startArrow=classic;html=1;fontSize=14;" parent="1" source="t-ImIZvQn2SqK_caZat9-10" target="t-ImIZvQn2SqK_caZat9-13" edge="1">
                    <mxGeometry x="-0.0253" y="4" width="50" height="50" relative="1" as="geometry">
                        <mxPoint x="687.1428571428571" y="70" as="sourcePoint"/>
                        <mxPoint x="772.8571428571429" y="-30" as="targetPoint"/>
                        <Array as="points">
                            <mxPoint x="560" y="-90"/>
                        </Array>
                        <mxPoint as="offset"/>
                    </mxGeometry>
                </mxCell>
                <mxCell id="t-ImIZvQn2SqK_caZat9-15" value="Привод скорости" style="rounded=1;whiteSpace=wrap;html=1;fontSize=14;fillColor=#f8cecc;strokeColor=#b85450;" parent="1" vertex="1">
                    <mxGeometry x="600" y="280" width="120" height="40" as="geometry"/>
                </mxCell>
                <mxCell id="t-ImIZvQn2SqK_caZat9-16" value="" style="endArrow=classic;startArrow=classic;html=1;fontSize=14;" parent="1" source="t-ImIZvQn2SqK_caZat9-4" target="t-ImIZvQn2SqK_caZat9-15" edge="1">
                    <mxGeometry width="50" height="50" relative="1" as="geometry">
                        <mxPoint x="680" y="340" as="sourcePoint"/>
                        <mxPoint x="610" y="330" as="targetPoint"/>
                        <Array as="points">
                            <mxPoint x="540" y="300"/>
                        </Array>
                    </mxGeometry>
                </mxCell>
                <mxCell id="t-ImIZvQn2SqK_caZat9-17" value="Привод поворота" style="rounded=1;whiteSpace=wrap;html=1;fontSize=14;fillColor=#f8cecc;strokeColor=#b85450;" parent="1" vertex="1">
                    <mxGeometry x="80" y="200" width="120" height="40" as="geometry"/>
                </mxCell>
                <mxCell id="t-ImIZvQn2SqK_caZat9-18" value="" style="endArrow=classic;startArrow=classic;html=1;fontSize=14;" parent="1" source="t-ImIZvQn2SqK_caZat9-7" target="t-ImIZvQn2SqK_caZat9-17" edge="1">
                    <mxGeometry width="50" height="50" relative="1" as="geometry">
                        <mxPoint x="527.1428571428571" y="210" as="sourcePoint"/>
                        <mxPoint x="612.8571428571429" y="110" as="targetPoint"/>
                    </mxGeometry>
                </mxCell>
                <mxCell id="t-ImIZvQn2SqK_caZat9-19" value="Сигнальные устройства" style="rounded=1;whiteSpace=wrap;html=1;fontSize=14;fillColor=#f8cecc;strokeColor=#b85450;" parent="1" vertex="1">
                    <mxGeometry x="640" y="200" width="120" height="40" as="geometry"/>
                </mxCell>
                <mxCell id="t-ImIZvQn2SqK_caZat9-20" value="" style="endArrow=classic;startArrow=classic;html=1;fontSize=14;" parent="1" source="t-ImIZvQn2SqK_caZat9-4" target="t-ImIZvQn2SqK_caZat9-19" edge="1">
                    <mxGeometry width="50" height="50" relative="1" as="geometry">
                        <mxPoint x="527.1428571428571" y="210" as="sourcePoint"/>
                        <mxPoint x="612.8571428571429" y="110" as="targetPoint"/>
                    </mxGeometry>
                </mxCell>
                <mxCell id="t-ImIZvQn2SqK_caZat9-26" value="Одометрия&lt;br&gt;(энкодер)" style="rounded=1;whiteSpace=wrap;html=1;fontSize=14;fillColor=#f8cecc;strokeColor=#b85450;" parent="1" vertex="1">
                    <mxGeometry x="640" y="120" width="120" height="40" as="geometry"/>
                </mxCell>
                <mxCell id="t-ImIZvQn2SqK_caZat9-27" value="" style="endArrow=classic;startArrow=classic;html=1;fontSize=14;" parent="1" source="t-ImIZvQn2SqK_caZat9-4" target="t-ImIZvQn2SqK_caZat9-26" edge="1">
                    <mxGeometry width="50" height="50" relative="1" as="geometry">
                        <mxPoint x="570" y="230" as="sourcePoint"/>
                        <mxPoint x="650" y="230" as="targetPoint"/>
                    </mxGeometry>
                </mxCell>
                <mxCell id="t-ImIZvQn2SqK_caZat9-32" value="Программная обработка данных для системы планирования" style="rounded=1;whiteSpace=wrap;html=1;fontSize=14;verticalAlign=middle;fillColor=#d5e8d4;strokeColor=#82b366;" parent="1" vertex="1">
                    <mxGeometry x="220" y="-200" width="180" height="60" as="geometry"/>
                </mxCell>
                <mxCell id="yR-QvZx8uirgOthwfy7J-1" value="Intel RealSense&lt;br&gt;D455" style="rounded=1;whiteSpace=wrap;html=1;fontSize=14;fillColor=#f8cecc;strokeColor=#b85450;" parent="1" vertex="1">
                    <mxGeometry x="230" width="120" height="40" as="geometry"/>
                </mxCell>
                <mxCell id="yR-QvZx8uirgOthwfy7J-2" value="USB" style="endArrow=classic;startArrow=classic;html=1;fontSize=14;" parent="1" source="t-ImIZvQn2SqK_caZat9-10" target="yR-QvZx8uirgOthwfy7J-1" edge="1">
                    <mxGeometry x="0.1111" width="50" height="50" relative="1" as="geometry">
                        <mxPoint x="470" y="20" as="sourcePoint"/>
                        <mxPoint x="510" y="-190" as="targetPoint"/>
                        <mxPoint as="offset"/>
                    </mxGeometry>
                </mxCell>
                <mxCell id="yR-QvZx8uirgOthwfy7J-3" value="Ublox M8N&lt;br&gt;GPS" style="rounded=1;whiteSpace=wrap;html=1;fontSize=14;fillColor=#f8cecc;strokeColor=#b85450;" parent="1" vertex="1">
                    <mxGeometry x="230" y="-110" width="120" height="40" as="geometry"/>
                </mxCell>
                <mxCell id="yR-QvZx8uirgOthwfy7J-4" value="USB" style="endArrow=classic;startArrow=classic;html=1;fontSize=14;" parent="1" source="t-ImIZvQn2SqK_caZat9-10" target="yR-QvZx8uirgOthwfy7J-3" edge="1">
                    <mxGeometry width="50" height="50" relative="1" as="geometry">
                        <mxPoint x="510" y="10" as="sourcePoint"/>
                        <mxPoint x="510" y="-190" as="targetPoint"/>
                        <Array as="points">
                            <mxPoint x="430" y="-90"/>
                        </Array>
                    </mxGeometry>
                </mxCell>
            </root>
        </mxGraphModel>
    </diagram>
</mxfile>